<svg width="16" height="12" viewBox="0 0 16 12" fill="none" xmlns="http://www.w3.org/2000/svg">
<path d="M14.71 1.21C14.617 1.11627 14.5064 1.04188 14.3846 0.991107C14.2627 0.940338 14.132 0.9142 14 0.9142C13.868 0.9142 13.7373 0.940338 13.6154 0.991107C13.4936 1.04188 13.383 1.11627 13.29 1.21L5.84001 8.67L2.71001 5.53C2.61349 5.43676 2.49955 5.36345 2.37469 5.31424C2.24984 5.26504 2.11651 5.24091 1.98233 5.24323C1.84815 5.24555 1.71574 5.27428 1.59266 5.32777C1.46959 5.38126 1.35825 5.45848 1.26501 5.555C1.17177 5.65152 1.09846 5.76546 1.04925 5.89032C1.00005 6.01517 0.97592 6.1485 0.978241 6.28268C0.980563 6.41686 1.00929 6.54927 1.06278 6.67234C1.11628 6.79542 1.19349 6.90676 1.29001 7L5.13001 10.84C5.22297 10.9337 5.33358 11.0081 5.45543 11.0589C5.57729 11.1097 5.708 11.1358 5.84001 11.1358C5.97202 11.1358 6.10273 11.1097 6.22459 11.0589C6.34645 11.0081 6.45705 10.9337 6.55001 10.84L14.71 2.68C14.8115 2.58636 14.8925 2.4727 14.9479 2.3462C15.0033 2.21971 15.0319 2.0831 15.0319 1.945C15.0319 1.8069 15.0033 1.67029 14.9479 1.54379C14.8925 1.41729 14.8115 1.30364 14.71 1.21Z" fill="#26D266" stroke="#26D166"/>
</svg>
